<?xml version="1.0" standalone="no"?>
<!DOCTYPE svg PUBLIC "-//W3C//DTD SVG 20010904//EN"
 "http://www.w3.org/TR/2001/REC-SVG-20010904/DTD/svg10.dtd">
<svg version="1.0" xmlns="http://www.w3.org/2000/svg"
 width="237.000000pt" height="237.000000pt" viewBox="0 0 237.000000 237.000000"
 preserveAspectRatio="xMidYMid meet">
<metadata>
Created by potrace 1.11, written by Peter Selinger 2001-2013
</metadata>
<g transform="translate(0.000000,237.000000) scale(0.100000,-0.100000)"
fill="#000000" stroke="none">
<path d="M1240 2085 c0 -27 3 -45 7 -41 7 7 5 77 -3 85 -2 2 -4 -17 -4 -44z"/>
<path d="M1486 2118 c5 -8 2 -9 -9 -5 -14 5 -17 0 -18 -31 -1 -20 0 -47 1 -59
2 -27 5 -27 -120 -9 -52 8 -97 12 -99 11 -10 -10 15 -26 37 -25 56 4 102 0
102 -9 0 -10 -62 -35 -125 -51 l-40 -10 43 5 c24 3 69 16 101 29 53 23 60 24
111 11 30 -7 63 -16 73 -20 17 -7 17 -8 0 -22 -17 -14 -17 -14 0 -9 9 3 23 8
30 11 16 7 41 -10 33 -23 -10 -16 -121 -49 -211 -62 -110 -17 -349 -14 -433 5
-79 18 -172 54 -172 66 0 11 27 12 34 1 3 -5 34 -16 68 -25 97 -26 151 -36
142 -28 -5 5 -35 13 -67 19 -31 6 -76 20 -100 31 -38 18 -40 19 -15 20 15 1
30 -3 33 -9 3 -5 14 -10 23 -9 12 0 9 3 -7 10 -34 13 -14 31 38 33 22 0 35 3
30 6 -15 10 147 36 244 39 10 1 15 6 12 12 -15 23 -373 -43 -444 -82 -9 -4
-34 -16 -56 -25 -100 -44 -290 -185 -393 -293 -69 -72 -93 -108 -157 -228 -17
-33 -17 -33 -96 -33 -52 0 -79 -4 -79 -11 0 -8 21 -10 70 -5 39 4 70 4 70 1 0
-3 -7 -20 -17 -38 -20 -39 -41 -131 -48 -212 -3 -33 -8 -69 -10 -81 -3 -11 -7
-86 -11 -165 -7 -161 -3 -178 55 -233 51 -48 163 -112 285 -161 90 -37 94 -26
-33 -99 -67 -39 -258 -178 -323 -236 -21 -19 -38 -42 -38 -52 0 -25 4 -23 45
17 20 19 49 44 65 55 25 17 29 18 34 4 3 -9 4 -20 0 -25 -3 -5 2 -9 10 -9 9 0
16 -4 16 -10 0 -5 7 -10 15 -10 8 0 15 -4 15 -10 0 -16 30 -12 36 5 4 8 10 13
15 10 12 -8 -1 -35 -17 -35 -8 0 -14 -5 -14 -11 0 -12 43 -1 48 12 2 4 10 5
19 2 12 -5 14 -3 8 7 -5 8 -3 11 6 8 8 -3 13 -11 11 -17 -1 -6 5 -11 14 -11 9
0 27 -12 39 -26 20 -23 27 -25 64 -19 49 8 58 35 11 35 -38 0 -38 13 -1 39 24
18 36 19 74 12 36 -6 47 -5 51 5 3 8 11 14 18 13 10 0 10 -2 1 -6 -18 -7 -16
-23 2 -23 7 0 19 8 24 18 6 9 11 11 11 5 0 -15 30 -18 30 -3 0 6 6 10 14 10 8
0 16 5 18 12 3 7 12 9 22 5 10 -4 16 -13 13 -21 -7 -17 8 -30 42 -41 13 -4 34
-18 46 -31 12 -13 30 -24 41 -25 10 -1 355 -3 767 -6 821 -4 774 -7 721 56
-30 36 -21 41 13 9 l23 -21 0 61 c0 33 -5 64 -10 67 -6 4 -7 11 -4 17 5 7 -1
9 -15 5 -17 -4 -21 -2 -17 9 5 13 2 16 -26 18 -17 1 -37 19 -32 27 2 4 -4 6
-14 5 -10 0 -16 5 -14 14 2 8 0 12 -4 8 -8 -8 -78 30 -183 99 -36 23 -74 43
-83 43 -35 0 -17 16 70 60 86 44 153 91 201 142 54 55 71 79 71 97 0 11 5 32
10 46 12 30 -7 189 -41 360 -7 33 -13 76 -14 95 -1 19 -10 52 -19 74 -19 45
-19 49 -6 41 14 -9 130 6 130 17 0 5 -34 8 -77 7 l-78 -2 -37 59 c-21 32 -45
73 -54 89 -65 118 -235 296 -340 357 -78 46 -209 108 -227 108 -39 0 -52 30
-56 133 -1 15 -6 27 -12 27 -5 0 -7 -5 -3 -12z m-718 -277 c-85 -93 -93 -101
-105 -101 -7 0 -13 5 -13 11 0 6 -8 8 -19 4 -11 -3 -22 -2 -25 3 -4 8 17 25
139 115 14 10 23 23 19 28 -3 5 6 4 20 -2 l26 -12 -42 -46z m-42 46 c-10 -7
-49 -36 -87 -64 -37 -29 -73 -53 -80 -53 -19 0 25 42 68 65 21 11 53 30 72 42
19 13 37 23 40 22 3 0 -2 -6 -13 -12z m172 -33 c3 -2 -20 -45 -56 -104 -20
-32 -24 -34 -69 -31 -26 1 -51 5 -56 8 -9 5 27 56 81 114 31 35 35 36 65 26
18 -7 33 -12 35 -13z m878 -29 c3 -8 13 -11 21 -8 10 4 14 2 10 -5 -4 -6 1
-13 10 -15 15 -4 14 -5 -3 -6 -12 0 -27 5 -34 13 -6 8 -17 14 -23 12 -7 -1 -8
-1 -4 2 5 2 0 13 -10 24 -18 21 -18 21 5 9 13 -7 25 -18 28 -26z m-671 -5 c66
-6 155 -8 197 -4 89 8 97 4 130 -62 28 -57 34 -50 8 10 -11 27 -18 52 -15 56
3 5 19 11 36 15 28 6 35 2 89 -57 33 -34 60 -58 60 -53 0 14 -27 53 -63 93
-17 17 -27 32 -21 32 12 -1 62 -29 51 -30 -4 0 13 -20 39 -45 26 -24 46 -46
43 -48 -13 -11 -115 -29 -198 -34 -232 -15 -595 -2 -619 22 -2 2 7 20 21 42
13 21 31 50 40 65 15 24 20 26 49 18 18 -5 87 -14 153 -20z m805 -90 c8 -16 3
-22 -33 -43 -82 -45 -218 -76 -394 -89 -90 -7 -163 -16 -163 -21 0 -5 19 -27
43 -49 l42 -40 85 6 c95 5 338 47 415 70 28 9 59 22 70 30 35 27 52 18 97 -51
102 -155 120 -193 162 -338 36 -125 74 -405 59 -443 -6 -17 -9 3 -10 69 -1 50
-6 96 -11 101 -4 4 -17 2 -28 -6 -16 -12 -19 -25 -16 -86 3 -71 -3 -110 -16
-110 -4 0 -8 27 -8 60 -2 89 -10 109 -35 103 -20 -6 -21 -10 -15 -72 3 -36 9
-79 12 -95 5 -22 4 -28 -7 -24 -9 3 -17 32 -23 86 -9 83 -24 104 -45 65 -12
-24 -2 -163 13 -164 6 0 0 -5 -13 -10 -13 -5 -25 -8 -27 -7 -1 2 -4 41 -6 88
-3 98 8 92 -123 68 -44 -8 -81 -14 -83 -13 -1 1 -4 42 -6 91 -5 138 -54 247
-129 286 -36 19 -62 23 -175 26 -151 5 -182 0 -182 -27 0 -22 -56 -133 -73
-143 -6 -4 -15 -4 -19 -2 -5 3 -8 2 -7 -3 1 -4 1 -14 0 -21 -1 -17 -114 -89
-151 -97 -17 -4 -30 -13 -30 -21 0 -17 -31 -18 -190 -4 -69 6 -117 15 -122 23
-6 9 -8 9 -8 -2 0 -11 -16 -13 -79 -8 -44 3 -84 8 -89 11 -5 3 -6 28 -2 58 5
29 16 114 25 188 19 149 44 241 81 296 14 20 23 39 20 41 -9 9 -66 -91 -82
-142 -8 -27 -21 -95 -29 -150 -13 -90 -22 -151 -24 -165 -1 -3 -45 -2 -99 2
-91 6 -98 5 -115 -14 -12 -15 -17 -34 -15 -62 4 -47 15 -52 141 -62 l79 -7 -6
-66 c-4 -36 -7 -98 -8 -137 -2 -68 -3 -70 -25 -66 -13 2 -23 11 -23 19 0 13 3
13 18 2 16 -13 16 -13 0 7 -10 11 -18 25 -18 30 0 5 5 2 11 -6 7 -11 9 -1 5
38 -5 41 -3 54 9 58 25 10 17 23 -12 21 -28 -2 -28 -3 -31 -80 l-3 -78 -31 3
-31 3 2 79 c2 72 1 78 -14 66 -17 -14 -77 -21 -68 -7 2 4 -3 7 -11 7 -18 0
-116 49 -99 50 6 0 22 -4 35 -9 39 -14 128 -24 128 -13 0 5 -24 13 -53 16 -28
4 -76 14 -105 22 -59 18 -91 13 -49 -6 26 -13 39 -50 17 -50 -5 0 -10 6 -10
13 0 8 -11 24 -24 36 -21 19 -24 20 -30 6 -3 -9 -6 -39 -6 -66 0 -27 -4 -49
-10 -49 -6 0 -10 33 -10 80 0 68 -3 80 -16 80 -15 0 -16 11 -10 93 6 94 17
141 56 257 38 111 118 266 163 316 l43 47 64 -25 c36 -14 101 -33 145 -43 44
-9 100 -23 124 -30 44 -13 44 -13 79 21 38 37 31 47 -10 15 -41 -33 -155 -8
-204 44 -38 40 -94 72 -94 53 0 -9 -3 -9 -11 2 -8 13 -12 12 -26 -7 -8 -13
-22 -23 -31 -23 -12 0 -10 6 8 25 29 31 51 31 131 1 35 -13 100 -31 144 -41
44 -10 92 -21 107 -25 18 -6 47 -2 88 11 113 35 291 21 372 -29 36 -23 95 -82
122 -124 23 -35 46 -122 46 -175 0 -24 5 -43 10 -43 21 0 -13 171 -45 226 -35
60 -126 139 -182 159 -75 26 -215 31 -297 10 -49 -12 -86 -15 -128 -11 -122
14 -313 76 -305 99 2 6 14 19 28 28 23 18 27 17 124 -11 227 -67 818 -83 1043
-28 87 21 164 51 175 69 10 17 12 16 39 -2 15 -11 32 -29 38 -39z m26 -67 c-4
-4 -12 -1 -19 7 -9 10 -9 11 1 6 7 -4 12 -2 13 6 0 11 2 11 6 0 3 -7 2 -16 -1
-19z m-72 -28 c3 -8 1 -15 -4 -15 -6 0 -10 6 -10 13 0 9 -3 8 -9 -2 -5 -8 -11
-9 -15 -3 -3 6 0 13 6 15 21 9 26 8 32 -8z m126 1 c0 -3 -4 -8 -10 -11 -5 -3
-10 -1 -10 4 0 6 5 11 10 11 6 0 10 -2 10 -4z m-50 -31 c-7 -8 -22 -14 -34
-14 -20 1 -20 2 -1 6 11 3 24 12 28 20 5 8 11 12 14 9 3 -3 0 -12 -7 -21z
m-160 5 c-12 -7 -7 -11 20 -17 19 -4 37 -7 40 -6 3 1 14 4 25 8 12 4 10 0 -6
-9 -34 -20 -83 -30 -257 -55 -179 -26 -180 -26 -220 7 l-33 28 30 2 c17 1 31
-2 31 -8 0 -12 112 -6 131 6 10 6 210 50 239 52 13 2 13 1 0 -8z m-68 -428
c20 -12 47 -39 61 -61 46 -69 58 -133 60 -325 1 -97 0 -176 -3 -176 -3 0 -15
-3 -27 -6 -19 -5 -23 -2 -24 17 -2 24 -2 24 -6 2 -3 -14 -14 -25 -26 -27 -74
-16 -567 -39 -617 -29 l-25 5 -4 164 -3 164 28 2 c16 0 35 1 42 1 6 -1 12 3
12 8 0 6 16 19 36 31 48 28 118 124 146 200 l22 61 147 -5 c128 -4 151 -8 181
-26z m-1136 -156 c0 0 -2 -24 -4 -52 l-4 -52 -36 4 c-127 13 -148 16 -158 22
-6 4 -9 26 -6 49 l4 43 102 -6 c55 -4 101 -7 102 -8z m329 -146 c94 -7 172
-14 173 -15 2 -2 6 -67 9 -145 l6 -142 -129 6 c-134 7 -293 22 -354 34 l-35 7
1 55 c1 30 2 92 3 138 l1 84 78 -5 c42 -3 154 -11 247 -17z m1202 -72 c-3 -7
-5 -2 -5 12 0 14 2 19 5 13 2 -7 2 -19 0 -25z m-97 -14 c0 -9 -5 -12 -12 -8
-9 6 -9 3 0 -9 8 -9 11 -25 7 -38 -5 -16 -4 -20 6 -15 8 4 4 0 -8 -9 -12 -9
-19 -23 -16 -31 8 -20 23 -17 17 4 -5 16 -5 16 6 -1 17 -26 7 -33 -62 -47 -35
-6 -70 -14 -79 -16 -13 -4 -16 9 -18 84 l-2 87 68 3 c37 2 70 5 72 8 10 9 21
3 21 -12z m-1602 -79 c4 -49 -5 -55 -53 -40 l-40 13 43 -5 c33 -4 42 -2 42 10
0 8 -14 20 -30 26 -17 5 -40 17 -53 26 -21 15 -19 15 33 11 l55 -4 3 -37z
m1709 -2 c-3 -10 -5 -4 -5 12 0 17 2 24 5 18 2 -7 2 -21 0 -30z m-1887 -26
c63 -19 163 -45 223 -58 59 -13 107 -26 107 -30 0 -4 9 -5 20 -2 12 3 47 0 78
-6 134 -27 455 -41 720 -30 141 6 259 12 261 15 2 2 11 -1 18 -8 11 -9 16 -9
22 1 5 8 54 18 122 27 124 14 267 49 390 94 67 24 78 26 70 11 -47 -86 -330
-167 -706 -201 -237 -22 -665 -12 -830 19 -27 5 -77 13 -110 16 -33 4 -91 15
-130 26 -38 10 -102 25 -141 33 -89 19 -186 55 -179 66 3 5 -5 12 -19 16 -14
3 -28 15 -31 25 -4 10 -11 19 -16 19 -5 0 -9 5 -9 11 0 8 4 8 13 1 6 -5 64
-26 127 -45z m-15 43 c3 -5 1 -10 -4 -10 -6 0 -11 5 -11 10 0 6 2 10 4 10 3 0
8 -4 11 -10z m-118 -42 c-3 -8 -6 -5 -6 6 -1 11 2 17 5 13 3 -3 4 -12 1 -19z
m178 12 c3 -6 -1 -7 -9 -4 -18 7 -21 14 -7 14 6 0 13 -4 16 -10z m-20 -107
c149 -44 422 -95 610 -115 166 -17 525 -14 720 7 253 26 299 33 400 60 115 30
119 31 75 3 -55 -34 -278 -99 -342 -100 -21 0 -36 -5 -35 -11 1 -6 -9 -12 -23
-13 -14 -1 -38 -4 -55 -8 -16 -4 -63 -9 -103 -11 -40 -2 -78 -8 -85 -12 -18
-11 -287 -14 -287 -3 0 6 10 10 22 10 29 0 15 12 -19 16 -15 1 -36 -4 -45 -13
-16 -14 -33 -15 -145 -5 -71 6 -135 10 -143 10 -67 0 -248 40 -301 66 -27 14
-47 21 -44 16 9 -14 5 -13 -53 15 -29 14 -54 25 -57 25 -12 0 -175 80 -175 86
0 3 8 3 18 -1 9 -4 40 -14 67 -22z m215 -223 c-27 -20 -60 -32 -60 -22 0 8 60
40 75 41 6 0 -1 -8 -15 -19z m-80 -40 c-24 -15 -36 -11 -14 4 10 8 21 12 24
10 2 -3 -2 -9 -10 -14z m340 -190 c0 -5 -4 -10 -10 -10 -5 0 -10 5 -10 10 0 6
5 10 10 10 6 0 10 -4 10 -10z m-317 -30 c-10 -10 -20 -17 -23 -17 -3 0 -13 -3
-22 -7 -10 -5 -26 -5 -35 -1 -14 6 -8 12 31 31 54 25 78 22 49 -6z m-88 10
c-3 -5 -10 -10 -16 -10 -5 0 -9 5 -9 10 0 6 7 10 16 10 8 0 12 -4 9 -10z"/>
<path d="M708 1803 c7 -3 16 -2 19 1 4 3 -2 6 -13 5 -11 0 -14 -3 -6 -6z"/>
<path d="M1062 1780 c0 -19 2 -27 5 -17 2 9 2 25 0 35 -3 9 -5 1 -5 -18z"/>
<path d="M1225 1779 c10 -35 23 -45 18 -15 -3 15 -10 29 -15 32 -6 4 -7 -2 -3
-17z"/>
<path d="M970 1573 c-98 -15 -203 -74 -240 -136 -58 -94 -61 -217 -10 -325 44
-93 115 -136 244 -148 101 -9 182 17 255 83 19 17 39 29 45 26 5 -3 6 -1 2 5
-3 6 3 29 15 52 31 58 36 156 14 231 -31 102 -111 173 -231 204 -32 8 -61 14
-64 14 -3 -1 -16 -3 -30 -6z m114 -58 c50 -21 45 -26 -10 -9 -56 17 -140 12
-183 -11 -18 -9 -35 -14 -37 -12 -3 2 14 14 38 26 52 25 139 28 192 6z m-93
-77 c0 -10 2 -10 6 0 8 21 21 4 16 -22 -6 -28 -27 -39 -54 -31 -19 6 -26 44
-12 58 11 12 43 8 44 -5z m-247 -203 c4 -34 3 -45 -4 -35 -9 14 -15 99 -6 89
2 -2 6 -26 10 -54z m503 -37 c-3 -8 -6 -5 -6 6 -1 11 2 17 5 13 3 -3 4 -12 1
-19z m-37 -81 c0 -2 -10 -12 -22 -23 l-23 -19 19 23 c18 21 26 27 26 19z
m-381 -40 c32 -30 102 -50 161 -48 33 1 41 -1 30 -9 -38 -25 -142 0 -197 46
-21 19 -34 33 -29 34 6 0 21 -10 35 -23z m264 -44 c-7 -2 -19 -2 -25 0 -7 3
-2 5 12 5 14 0 19 -2 13 -5z"/>
<path d="M2071 1404 c0 -11 3 -14 6 -6 3 7 2 16 -1 19 -3 4 -6 -2 -5 -13z"/>
<path d="M2207 990 c-3 -11 -1 -20 4 -20 5 0 9 9 9 20 0 11 -2 20 -4 20 -2 0
-6 -9 -9 -20z"/>
<path d="M1500 1139 c-67 -28 -130 -129 -130 -209 1 -92 76 -188 165 -212 25
-7 45 -16 45 -21 0 -5 10 -22 21 -39 17 -23 24 -27 30 -16 12 18 11 30 -2 23
-10 -7 -38 21 -39 39 0 4 12 6 27 3 63 -12 151 55 175 134 25 86 -28 217 -110
272 -48 32 -138 45 -182 26z m182 -63 c19 -14 47 -49 63 -77 46 -86 27 -163
-57 -226 -79 -57 -231 -6 -267 90 -27 71 9 185 72 227 46 30 141 23 189 -14z"/>
<path d="M1546 1079 c-79 -22 -122 -124 -87 -204 28 -61 62 -87 122 -93 63 -6
103 13 138 63 43 64 14 176 -57 217 -36 20 -81 27 -116 17z m41 -57 c8 -5 3
-11 -17 -19 -27 -10 -28 -10 -17 8 13 21 17 22 34 11z m28 -43 c0 -7 -8 -15
-17 -17 -18 -3 -25 18 -11 32 10 10 28 1 28 -15z m-57 -9 c-7 -10 -14 -17 -17
-15 -4 4 18 35 25 35 2 0 -1 -9 -8 -20z"/>
<path d="M890 823 c-28 -11 -57 -48 -65 -81 -5 -27 -2 -39 20 -67 29 -39 62
-45 119 -21 29 12 35 21 41 56 6 34 3 48 -12 68 -11 14 -26 28 -34 30 -8 3 -2
-7 14 -21 15 -14 27 -33 27 -42 0 -21 -17 -19 -23 4 -2 10 -17 27 -31 37 -26
16 -28 16 -54 -3 -35 -26 -40 -65 -12 -93 26 -26 66 -20 92 13 14 18 18 19 18
5 0 -30 -29 -48 -76 -48 -42 0 -46 2 -60 36 -21 50 -5 86 49 113 38 18 28 29
-13 14z m58 -91 c3 -30 1 -33 -19 -30 -27 4 -44 29 -36 52 4 11 15 16 29 14
18 -2 24 -11 26 -36z"/>
<path d="M210 650 c0 -5 7 -10 16 -10 8 0 12 5 9 10 -3 6 -10 10 -16 10 -5 0
-9 -4 -9 -10z"/>
<path d="M1398 1923 c7 -3 16 -2 19 1 4 3 -2 6 -13 5 -11 0 -14 -3 -6 -6z"/>
<path d="M948 1913 c7 -3 16 -2 19 1 4 3 -2 6 -13 5 -11 0 -14 -3 -6 -6z"/>
<path d="M1465 1905 c-40 -19 -16 -19 26 0 19 8 27 14 19 14 -8 0 -28 -7 -45
-14z"/>
<path d="M1398 1883 c7 -3 16 -2 19 1 4 3 -2 6 -13 5 -11 0 -14 -3 -6 -6z"/>
<path d="M1338 1873 c6 -2 18 -2 25 0 6 3 1 5 -13 5 -14 0 -19 -2 -12 -5z"/>
<path d="M1063 1863 c9 -2 23 -2 30 0 6 3 -1 5 -18 5 -16 0 -22 -2 -12 -5z"/>
<path d="M0 590 c0 -5 5 -10 10 -10 6 0 10 5 10 10 0 6 -4 10 -10 10 -5 0 -10
-4 -10 -10z"/>
<path d="M130 526 c0 -3 9 -10 20 -16 11 -6 20 -8 20 -6 0 3 -9 10 -20 16 -11
6 -20 8 -20 6z"/>
<path d="M2337 503 c-4 -3 -7 -11 -7 -17 0 -6 5 -5 12 2 6 6 9 14 7 17 -3 3
-9 2 -12 -2z"/>
<path d="M2090 475 c-11 -13 -10 -14 4 -9 9 3 16 10 16 15 0 13 -6 11 -20 -6z"/>
<path d="M2300 440 c8 -5 26 -10 39 -10 32 0 24 6 -19 14 -25 4 -31 3 -20 -4z"/>
<path d="M2045 430 c3 -5 8 -10 11 -10 2 0 4 5 4 10 0 6 -5 10 -11 10 -5 0 -7
-4 -4 -10z"/>
<path d="M488 8 c5 -5 16 -8 23 -6 8 3 3 7 -10 11 -17 4 -21 3 -13 -5z"/>
</g>
</svg>
